<?xml version="1.0"?>
<svg xmlns="http://www.w3.org/2000/svg" xmlns:xlink="http://www.w3.org/1999/xlink" xmlns:svgjs="http://svgjs.com/svgjs" version="1.1" width="512" height="512" x="0" y="0" viewBox="0 0 512 512" style="enable-background:new 0 0 512 512" xml:space="preserve"><g><g xmlns="http://www.w3.org/2000/svg" id="outline"><path d="M178.969,218.65l6.149,21.6a8,8,0,0,0,6.213,5.671l52.737,9.94a8,8,0,0,0,3.672-.168l230.827-65.717a24,24,0,0,0,2.021-45.492,104.648,104.648,0,0,0-65.71-2.919l-57.994,16.511c-.055.016-.107.038-.161.055l-82.836-32.925a7.994,7.994,0,0,0-5.146-.261L231.676,135.5a8,8,0,0,0-1.766,14.648l51.639,29.379-47.635,13.562-38.6-27.48a8,8,0,0,0-6.83-1.177l-30.777,8.763a8,8,0,0,0-4.14,12.586Zm75.424-72.983,16.112-4.587,97.546,38.772-35.7,10.165Zm46.645,44.946,26.315,14.971a8.008,8.008,0,0,0,6.146.741L395.054,188.8a8,8,0,0,0,.764-15.129L381.1,167.82l38.163-10.865a88.456,88.456,0,0,1,37.36-2.319l-12.087,3.441a8,8,0,1,0,4.381,15.389L479.69,164.7h0a8.009,8.009,0,0,1-5.5,9.884l-229.011,65.2-46.023-8.674-3.027-10.633Zm-111.869-9.74L214.207,198.7l-24.947,7.1-15.8-20.454Z" fill="#ffffff" data-original="#000000" style=""/><path d="M285.14,219.776a7.975,7.975,0,0,0,2.194-.308l7.694-2.191a8,8,0,1,0-4.381-15.388l-7.694,2.191a8,8,0,0,0,2.187,15.7Z" fill="#ffffff" data-original="#000000" style=""/><path d="M254.362,228.538a7.992,7.992,0,0,0,2.2-.308l7.694-2.19a8,8,0,1,0-4.381-15.389l-7.694,2.191a8,8,0,0,0,2.186,15.7Z" fill="#ffffff" data-original="#000000" style=""/><path d="M88,192a8,8,0,0,0,8-8v-8a8,8,0,0,0-16,0v8A8,8,0,0,0,88,192Z" fill="#ffffff" data-original="#000000" style=""/><path d="M273.185,272.359l-51.556,16a8,8,0,1,0,4.742,15.282l51.556-16a8,8,0,0,0-4.742-15.282Z" fill="#ffffff" data-original="#000000" style=""/><path d="M152,296a7.994,7.994,0,0,0,2.374-.361l51.556-16a8,8,0,0,0-4.742-15.282l-51.556,16A8,8,0,0,0,152,296Z" fill="#ffffff" data-original="#000000" style=""/><path d="M324.74,256.359l-23.111,7.173a8,8,0,1,0,4.742,15.281l23.111-7.172a8,8,0,0,0-4.742-15.282Z" fill="#ffffff" data-original="#000000" style=""/><path d="M453.629,216.359l-96,29.793a8,8,0,1,0,4.742,15.282l96-29.793a8,8,0,0,0-4.742-15.282Z" fill="#ffffff" data-original="#000000" style=""/><path d="M488,416H400V368a8,8,0,0,0,8-8V328a8,8,0,0,0-8-8H152a8,8,0,0,0-8,8v40H133.766L120,326.7V216a8,8,0,0,0,7.938-7.008l8-64A8,8,0,0,0,128,136V112a8,8,0,0,0-8-8H96V88a8,8,0,0,0-16,0v16H56a8,8,0,0,0-8,8v24a8,8,0,0,0-7.938,8.992l8,64A8,8,0,0,0,56,216V326.7L42.234,368H24a8,8,0,0,0-8,8v48a8,8,0,0,0,8,8H488a8,8,0,0,0,0-16ZM64,120h48v16H64Zm54.938,32-6,48H63.062l-6-48ZM104.41,330.53,116.9,368H59.1l12.49-37.47A8.027,8.027,0,0,0,72,328V216h32V328A8.027,8.027,0,0,0,104.41,330.53ZM144,416H128v-8a8,8,0,0,0-16,0v8H96v-8a8,8,0,0,0-16,0v8H64v-8a8,8,0,0,0-16,0v8H32V384H144Zm48,0H160V400h32Zm0-32H160V368h32Zm48,32H208V400h32Zm0-32H208V368h32Zm48,32H256V400h32Zm0-32H256V368h32Zm48,32H304V400h32Zm0-32H304V368h32Zm48,32H352V400h32Zm0-32H352V368h32Zm8-32H160V336H392Z" fill="#ffffff" data-original="#000000" style=""/></g></g></svg>
