<?xml version="1.0"?>
<svg xmlns="http://www.w3.org/2000/svg" xmlns:xlink="http://www.w3.org/1999/xlink" xmlns:svgjs="http://svgjs.com/svgjs" version="1.1" width="512" height="512" x="0" y="0" viewBox="0 0 512 512" style="enable-background:new 0 0 512 512" xml:space="preserve"><g><g xmlns="http://www.w3.org/2000/svg"><g><path d="m451.713 198.805c-3.097-2.754-7.839-2.473-10.588.623-2.752 3.097-2.473 7.837.623 10.588 35.113 31.207 55.252 75.949 55.252 122.754 0 90.556-73.674 164.23-164.23 164.23-20.865 0-41.007-3.82-60.065-11.366 8.886-5.454 17.258-11.664 25.036-18.534 11.382 2.973 23.144 4.49 35.029 4.49 76.546 0 138.82-62.274 138.82-138.82 0-76.545-62.274-138.819-138.82-138.819-11.887 0-23.65 1.517-35.033 4.491-7.778-6.87-16.151-13.079-25.037-18.533 19.06-7.547 39.204-11.368 60.07-11.368 28.765 0 57.074 7.574 81.867 21.903 1.182.684 2.473 1.008 3.746 1.008 2.591 0 5.11-1.344 6.5-3.748 2.073-3.586.846-8.174-2.74-10.246-9.988-5.772-20.499-10.533-31.362-14.252v-15.292c0-14.45-11.122-26.345-25.254-27.59v-112.824c0-4.143-3.357-7.5-7.5-7.5s-7.5 3.357-7.5 7.5v112.709h-35.508v-112.709c0-4.143-3.357-7.5-7.5-7.5s-7.5 3.357-7.5 7.5v112.823c-14.132 1.245-25.254 13.139-25.254 27.59v15.254c-6.36 2.189-12.618 4.748-18.761 7.678-6.077-2.893-12.339-5.456-18.768-7.66v-15.271c0-14.451-11.123-26.346-25.256-27.59v-52.724c0-4.143-3.358-7.5-7.5-7.5s-7.5 3.357-7.5 7.5v52.609h-35.506v-112.709c0-4.143-3.358-7.5-7.5-7.5s-7.5 3.357-7.5 7.5v112.823c-14.132 1.245-25.254 13.139-25.254 27.59v15.271c-70.444 24.162-121.22 91.055-121.22 169.588 0 98.827 80.401 179.228 179.228 179.228 27.461 0 53.495-6.216 76.781-17.302 24.06 11.473 49.862 17.302 76.761 17.302 98.828 0 179.23-80.402 179.23-179.23 0-51.086-21.974-99.915-60.287-133.965zm-161.948-50.892c0-7.005 5.698-12.704 12.703-12.704h60.609c7.005 0 12.703 5.699 12.703 12.704v10.893c-14.011-3.466-28.455-5.266-43.011-5.266-14.698 0-29.066 1.752-43.005 5.199v-10.826zm166.825 184.857c0 68.274-55.546 123.82-123.82 123.82-7.488 0-14.917-.672-22.209-1.998 29.702-31.999 47.894-74.821 47.894-121.819 0-47-18.194-89.825-47.898-121.823 7.293-1.326 14.724-1.999 22.213-1.999 68.274-.001 123.82 55.544 123.82 123.819zm-320.37-184.857c0-7.005 5.699-12.704 12.703-12.704h55.538c.007 0 .013.001.019.001s.013-.001.019-.001h5.033c7.004 0 12.703 5.699 12.703 12.704v10.861c-13.784-3.408-28.186-5.229-43.008-5.229s-29.224 1.821-43.008 5.229v-10.861zm-121.22 184.859c0-90.556 73.672-164.228 164.228-164.228s164.228 73.672 164.228 164.228-73.673 164.228-164.228 164.228c-90.556 0-164.228-73.672-164.228-164.228z" fill="#ffffff" data-original="#000000" style=""/><path d="m204.48 40.1c4.142 0 7.5-3.357 7.5-7.5v-25.1c0-4.143-3.358-7.5-7.5-7.5s-7.5 3.357-7.5 7.5v25.1c0 4.142 3.358 7.5 7.5 7.5z" fill="#ffffff" data-original="#000000" style=""/><path d="m179.23 193.95c-76.545 0-138.82 62.274-138.82 138.819 0 13.8 2.031 27.443 6.038 40.553 1.21 3.961 5.403 6.188 9.364 4.98 3.961-1.211 6.191-5.403 4.98-9.365-3.571-11.687-5.382-23.855-5.382-36.168 0-68.274 55.545-123.819 123.82-123.819 7.58 0 15.001.688 22.208 1.999-30.587 33.005-47.898 76.677-47.898 121.821s17.311 88.817 47.898 121.822c-7.207 1.311-14.629 1.999-22.208 1.999-42.608 0-81.725-21.568-104.637-57.696-2.219-3.498-6.853-4.536-10.35-2.317-3.498 2.219-4.536 6.853-2.317 10.351 25.678 40.49 69.53 64.663 117.304 64.663 76.545 0 138.82-62.274 138.82-138.82 0-76.547-62.275-138.822-138.82-138.822zm-10.69 138.82c0-44.115 18.046-86.702 49.655-117.532 8.819 2.931 17.203 6.825 25.022 11.564-31.02 26.282-49.267 65.145-49.267 105.968s18.247 79.687 49.267 105.969c-7.819 4.739-16.202 8.632-25.022 11.564-31.609-30.831-49.655-73.418-49.655-117.533zm87.473 97.067c-29.561-23.441-47.063-59.318-47.063-97.067 0-37.75 17.502-73.625 47.063-97.067 28.635 22.699 47.036 57.773 47.036 97.067s-18.401 74.368-47.036 97.067z" fill="#ffffff" data-original="#000000" style=""/></g></g></g></svg>
