<?xml version="1.0"?>
<svg xmlns="http://www.w3.org/2000/svg" xmlns:xlink="http://www.w3.org/1999/xlink" xmlns:svgjs="http://svgjs.com/svgjs" version="1.1" width="512" height="512" x="0" y="0" viewBox="0 0 512 512" style="enable-background:new 0 0 512 512" xml:space="preserve" class=""><g>
<g xmlns="http://www.w3.org/2000/svg">
	<g>
		<path d="M474.501,197.172h-79.748c-4.142,0-7.5,3.358-7.5,7.5v57.664c0,4.142,3.357,7.5,7.5,7.5h79.748c4.142,0,7.5-3.358,7.5-7.5    v-57.664h0C482.001,200.53,478.644,197.172,474.501,197.172z M467.001,254.836h-64.749v-42.664h64.749V254.836z" fill="#ffffff" data-original="#000000" style="" class=""/>
	</g>
</g>
<g xmlns="http://www.w3.org/2000/svg">
	<g>
		<path d="M504.5,212.172c4.143,0,7.5-3.358,7.5-7.5V144c0-4.142-3.357-7.5-7.5-7.5H330.876c-4.143,0-7.5,3.358-7.5,7.5v30    c0,4.142,3.357,7.5,7.5,7.5h26.377v11H238.506c-4.142,0-7.5,3.358-7.5,7.5c0,4.142,3.357,7.5,7.5,7.5h118.748v15H62.259v-15    h144.747c4.142,0,7.5-3.358,7.5-7.5c0-4.142-3.357-7.5-7.5-7.5h-9.182v-65h0.5c4.143,0,7.5-3.358,7.5-7.5V90    c0-4.142-3.357-7.5-7.5-7.5h-95.998c-4.142,0-7.5,3.358-7.5,7.5v30c0,4.142,3.357,7.5,7.5,7.5h0.5v6.5c0,4.142,3.357,7.5,7.5,7.5    s7.5-3.358,7.5-7.5v-6.5h64.999v65h-64.999v-28.167c0-4.142-3.357-7.5-7.5-7.5s-7.5,3.358-7.5,7.5V192.5H54.759    c-4.142,0-7.5,3.358-7.5,7.5v30c0,4.142,3.357,7.5,7.5,7.5h1.86v4.646H17.572c-4.142,0-7.5,3.358-7.5,7.5v71.667    c0,4.142,3.357,7.5,7.5,7.5h11.356L1.264,386.478c-0.145,0.301-0.269,0.613-0.372,0.931c-1.791,5.524-0.859,11.387,2.556,16.084    c3.415,4.697,8.704,7.391,14.511,7.391h46.155c4.142,0,7.5-3.358,7.5-7.5V387.5h11.697c3.841,23.78,24.504,42,49.351,42    c24.847,0,45.51-18.22,49.351-42h3.381c3.841,23.78,24.504,42,49.351,42s45.51-18.22,49.351-42h3.381    c3.841,23.78,24.504,42,49.351,42c24.847,0,45.51-18.22,49.351-42h3.381c3.841,23.78,24.504,42,49.351,42    c24.847,0,45.51-18.22,49.351-42H504.5c4.142,0,7.5-3.358,7.5-7.5v-30V233.504c0-4.142-3.357-7.5-7.5-7.5s-7.5,3.358-7.5,7.5    V342.5h-24.494c-8.883-8.073-20.675-13-33.596-13s-24.713,4.927-33.595,13h-33.062v-161H497v23.172    C497,208.814,500.357,212.172,504.5,212.172z M110.326,112.5h-0.5v-15h80.998v15h-0.5H110.326z M56.615,395.883H17.959    c-1.304,0-2.05-0.759-2.379-1.212c-0.298-0.409-0.729-1.222-0.511-2.292l30.494-63.568h11.052V395.883z M56.615,313.813H25.072    v-56.667h31.543V313.813z M497,357.5v15h-8.591c-0.748-5.312-2.329-10.357-4.613-15H497z M438.911,344.5    c19.298,0,34.999,15.701,34.999,35s-15.701,35-34.999,35c-19.298,0-34.999-15.701-34.999-35S419.613,344.5,438.911,344.5z     M394.026,357.5c-2.286,4.643-3.867,9.688-4.614,15h-3.085c-0.748-5.312-2.329-10.357-4.613-15H394.026z M83.163,372.5H71.619v-15    h16.157C85.491,362.143,83.91,367.188,83.163,372.5z M132.662,414.5c-19.298,0-34.999-15.701-34.999-35s15.701-35,34.999-35    c19.298,0,34.999,15.701,34.999,35S151.96,414.5,132.662,414.5z M185.246,372.5h-3.085c-0.748-5.312-2.329-10.357-4.613-15h12.312    C187.575,362.143,185.994,367.188,185.246,372.5z M234.745,414.5c-19.298,0-34.999-15.701-34.999-35s15.701-35,34.999-35    s34.999,15.701,34.999,35S254.043,414.5,234.745,414.5z M287.329,372.5h-3.085c-0.748-5.312-2.329-10.357-4.613-15h12.312    C289.657,362.143,288.077,367.188,287.329,372.5z M268.34,342.5c-8.883-8.073-20.675-13-33.596-13    c-12.921,0-24.713,4.927-33.596,13h-34.892c-8.883-8.073-20.675-13-33.596-13s-24.713,4.927-33.595,13H71.619v-105h285.634v96.38    c-6.241-2.806-13.151-4.38-20.425-4.38c-12.921,0-24.713,4.927-33.596,13H268.34z M336.828,414.5    c-19.298,0-34.999-15.701-34.999-35s15.701-35,34.999-35c19.298,0,34.999,15.701,34.999,35S356.126,414.5,336.828,414.5z     M364.753,166.5h-26.377v-15H497v15H364.753z" fill="#ffffff" data-original="#000000" style="" class=""/>
	</g>
</g>
<g xmlns="http://www.w3.org/2000/svg">
	<g>
		<path d="M474.501,280.312h-79.748c-4.142,0-7.5,3.358-7.5,7.5c0,4.142,3.357,7.5,7.5,7.5h79.748c4.142,0,7.5-3.358,7.5-7.5    C482.001,283.67,478.643,280.312,474.501,280.312z" fill="#ffffff" data-original="#000000" style="" class=""/>
	</g>
</g>
<g xmlns="http://www.w3.org/2000/svg">
	<g>
		<path d="M474.501,304.906h-79.748c-4.142,0-7.5,3.358-7.5,7.5c0,4.142,3.357,7.5,7.5,7.5h79.748c4.142,0,7.5-3.358,7.5-7.5    C482.001,308.264,478.643,304.906,474.501,304.906z" fill="#ffffff" data-original="#000000" style="" class=""/>
	</g>
</g>
<g xmlns="http://www.w3.org/2000/svg">
	<g>
		<path d="M200.324,247.979h-99.998c-4.142,0-7.5,3.358-7.5,7.5v30c0,4.142,3.357,7.5,7.5,7.5h99.998c4.142,0,7.5-3.358,7.5-7.5v-30    C207.824,251.337,204.467,247.979,200.324,247.979z M192.824,277.979h-84.998v-15h84.998V277.979z" fill="#ffffff" data-original="#000000" style="" class=""/>
	</g>
</g>
<g xmlns="http://www.w3.org/2000/svg">
	<g>
		<path d="M284.308,247.979h-53.302c-4.142,0-7.5,3.358-7.5,7.5c0,4.142,3.357,7.5,7.5,7.5h53.302c4.142,0,7.5-3.358,7.5-7.5    C291.808,251.337,288.451,247.979,284.308,247.979z" fill="#ffffff" data-original="#000000" style="" class=""/>
	</g>
</g>
<g xmlns="http://www.w3.org/2000/svg">
	<g>
		<path d="M284.308,277.979h-53.302c-4.142,0-7.5,3.358-7.5,7.5c0,4.142,3.357,7.5,7.5,7.5h53.302c4.142,0,7.5-3.358,7.5-7.5    C291.808,281.337,288.451,277.979,284.308,277.979z" fill="#ffffff" data-original="#000000" style="" class=""/>
	</g>
</g>
<g xmlns="http://www.w3.org/2000/svg">
	<g>
		<path d="M133.035,357c-12.406,0-22.5,10.093-22.5,22.5c0,12.407,10.094,22.5,22.5,22.5s22.5-10.093,22.5-22.5    C155.535,367.093,145.441,357,133.035,357z M133.035,387c-4.136,0-7.5-3.364-7.5-7.5s3.364-7.5,7.5-7.5c4.136,0,7.5,3.364,7.5,7.5    S137.171,387,133.035,387z" fill="#ffffff" data-original="#000000" style="" class=""/>
	</g>
</g>
<g xmlns="http://www.w3.org/2000/svg">
	<g>
		<path d="M235.118,357c-12.406,0-22.5,10.093-22.5,22.5c0,12.407,10.094,22.5,22.5,22.5s22.5-10.093,22.5-22.5    C257.618,367.093,247.524,357,235.118,357z M235.118,387c-4.136,0-7.5-3.364-7.5-7.5s3.364-7.5,7.5-7.5c4.136,0,7.5,3.364,7.5,7.5    S239.254,387,235.118,387z" fill="#ffffff" data-original="#000000" style="" class=""/>
	</g>
</g>
<g xmlns="http://www.w3.org/2000/svg">
	<g>
		<path d="M337.201,357c-12.406,0-22.5,10.093-22.5,22.5c0,12.407,10.094,22.5,22.5,22.5s22.5-10.093,22.5-22.5    C359.701,367.093,349.607,357,337.201,357z M337.201,387c-4.136,0-7.5-3.364-7.5-7.5s3.364-7.5,7.5-7.5s7.5,3.364,7.5,7.5    S341.337,387,337.201,387z" fill="#ffffff" data-original="#000000" style="" class=""/>
	</g>
</g>
<g xmlns="http://www.w3.org/2000/svg">
	<g>
		<path d="M439.284,357c-12.406,0-22.5,10.093-22.5,22.5c0,12.407,10.094,22.5,22.5,22.5s22.5-10.093,22.5-22.5    C461.784,367.093,451.69,357,439.284,357z M439.284,387c-4.136,0-7.5-3.364-7.5-7.5s3.364-7.5,7.5-7.5s7.5,3.364,7.5,7.5    S443.42,387,439.284,387z" fill="#ffffff" data-original="#000000" style="" class=""/>
	</g>
</g>
<g xmlns="http://www.w3.org/2000/svg">
</g>
<g xmlns="http://www.w3.org/2000/svg">
</g>
<g xmlns="http://www.w3.org/2000/svg">
</g>
<g xmlns="http://www.w3.org/2000/svg">
</g>
<g xmlns="http://www.w3.org/2000/svg">
</g>
<g xmlns="http://www.w3.org/2000/svg">
</g>
<g xmlns="http://www.w3.org/2000/svg">
</g>
<g xmlns="http://www.w3.org/2000/svg">
</g>
<g xmlns="http://www.w3.org/2000/svg">
</g>
<g xmlns="http://www.w3.org/2000/svg">
</g>
<g xmlns="http://www.w3.org/2000/svg">
</g>
<g xmlns="http://www.w3.org/2000/svg">
</g>
<g xmlns="http://www.w3.org/2000/svg">
</g>
<g xmlns="http://www.w3.org/2000/svg">
</g>
<g xmlns="http://www.w3.org/2000/svg">
</g>
</g></svg>
