<?xml version="1.0"?>
<svg xmlns="http://www.w3.org/2000/svg" xmlns:xlink="http://www.w3.org/1999/xlink" xmlns:svgjs="http://svgjs.com/svgjs" version="1.1" width="512" height="512" x="0" y="0" viewBox="0 0 64 64" style="enable-background:new 0 0 512 512" xml:space="preserve"><g><g xmlns="http://www.w3.org/2000/svg" id="pizza-food-delivery-restaurant-hand"><path d="M61.9,37.42l-1.6-8.01A3,3,0,0,0,57.36,27H56.3L55,2.95A1.007,1.007,0,0,0,54,2H10a1.007,1.007,0,0,0-1,.95L7.7,27H6.64A3,3,0,0,0,3.7,29.41L2.1,37.42a4.591,4.591,0,0,0-.1.98v9.39a4.959,4.959,0,0,0,.84,2.77l1.23,1.85L4.72,55H4a1,1,0,0,0-1,1v5a1,1,0,0,0,1,1H18a1,1,0,0,0,1-1V56a1,1,0,0,0-1-1H17v-.76l.89-1.79A1,1,0,0,0,18,52H46a1,1,0,0,0,.11.45L47,54.24V55H46a1,1,0,0,0-1,1v5a1,1,0,0,0,1,1H60a1,1,0,0,0,1-1V56a1,1,0,0,0-1-1h-.72l.65-2.59,1.23-1.85A4.959,4.959,0,0,0,62,47.79V38.4A4.591,4.591,0,0,0,61.9,37.42ZM10.95,4h42.1L55,40.03a.571.571,0,0,1-.31.51.583.583,0,0,1-.7-.15l-1.98-2.48a3.146,3.146,0,0,0-5.44,2.96L46.95,42H17.05l.38-1.13a3.146,3.146,0,0,0-5.44-2.96l-1.98,2.48a.58.58,0,0,1-.7.15A.564.564,0,0,1,9,40.05ZM35.72,44l-.12.49A1.992,1.992,0,0,1,33.66,46H30.34a1.992,1.992,0,0,1-1.94-1.51L28.28,44ZM4.5,49.45A2.97,2.97,0,0,1,4,47.79V38.4a2.88,2.88,0,0,1,.06-.59l1.6-8.01a1,1,0,0,1,.98-.8H7.6L7,40.03a2.552,2.552,0,0,0,1.42,2.3,2.6,2.6,0,0,0,3.15-.69l1.98-2.48a1.145,1.145,0,0,1,1.98,1.08L14.31,43.9a2.99,2.99,0,0,0,.17,2.29l1.41,2.84a.956.956,0,0,1,.11.44v2.29l-.89,1.79A1,1,0,0,0,15,54v1H6.78l-.81-3.24a.871.871,0,0,0-.14-.31ZM17,60H5V57H17ZM46.32,48.13A2.971,2.971,0,0,0,46,49.47V50H18v-.53a2.971,2.971,0,0,0-.32-1.34l-1.41-2.84a1,1,0,0,1-.06-.76l.18-.53h9.83l.24.97A4,4,0,0,0,30.34,48h3.32a4,4,0,0,0,3.88-3.03l.24-.97h9.83l.18.53a1,1,0,0,1-.06.76ZM59,60H47V57H59Zm1-12.21a2.97,2.97,0,0,1-.5,1.66l-1.33,2a.871.871,0,0,0-.14.31L57.22,55H49V54a1,1,0,0,0-.11-.45L48,51.76V49.47a.956.956,0,0,1,.11-.44l1.41-2.84a2.99,2.99,0,0,0,.17-2.29l-1.22-3.66a1.145,1.145,0,0,1,1.98-1.08l1.98,2.47A2.564,2.564,0,0,0,57,39.95L56.41,29h.95a1,1,0,0,1,.98.8l1.6,8.01a2.88,2.88,0,0,1,.06.59Z" fill="#ffffff" data-original="#000000" style=""/><path d="M45.09,8.15a1,1,0,0,0-1.39-.24L13.43,29.18a1,1,0,0,0-.38,1.12A.987.987,0,0,0,14,31H29v1a3,3,0,0,0,6,0V31h2v4a3,3,0,0,0,6,0V31h8a1,1,0,0,0,1-1A37.791,37.791,0,0,0,45.09,8.15ZM33.02,17.86l2.53-1.78A1.969,1.969,0,0,1,37,18a2,2,0,0,1-4,0A.675.675,0,0,1,33.02,17.86ZM25,29a1,1,0,1,1,1-1A1,1,0,0,1,25,29Zm17,0a1,1,0,0,0-1,1v5a1,1,0,0,1-2,0V30a1,1,0,0,0-1-1H34a1,1,0,0,0-1,1v2a1,1,0,0,1-2,0V30a1,1,0,0,0-1-1H27.82a3,3,0,1,0-5.64,0H17.16l14.03-9.85A3.988,3.988,0,0,0,39,18a3.931,3.931,0,0,0-1.62-3.2l1.71-1.21A29.7,29.7,0,0,1,43.96,29Zm3.96,0a31.652,31.652,0,0,0-5.23-16.56l3.29-2.31A35.807,35.807,0,0,1,49.99,29Z" fill="#ffffff" data-original="#000000" style=""/><rect x="28" y="23" width="2" height="2" fill="#ffffff" data-original="#000000" style=""/><rect x="39" y="22" width="2" height="2" fill="#ffffff" data-original="#000000" style=""/><rect x="33" y="26" width="2" height="2" fill="#ffffff" data-original="#000000" style=""/></g></g></svg>
